<svg xmlns="http://www.w3.org/2000/svg" viewBox="0 0 48 48" width="48" height="48"><path fill="#bbdefb" d="M21,16c0,3.3-2.8,6-7.5,6h-0.9C7.9,22,6,19.3,6,16s0.4-6,7-6h1C20.6,10,21,12.7,21,16z M42,16 c0-3.3-0.4-6-7-6h-1c-6.6,0-7,2.7-7,6s1.9,6,6.6,6h0.9C39.2,22,42,19.3,42,16z"/><path fill="#795548" d="M40.6,31c3.1,0.9,2,5.4-3.3,3.6c-2.5-0.8-3.7-3.5-5-5C31.2,28.2,29.7,27,27,27 c-1.2,0-2.3,0.5-3.1,1.2C23.1,27.4,22,27,20.8,27c-2.6,0-4.2,1.2-5.3,2.6c-1.2,1.5-2.5,4.3-5,5c-5.3,1.8-6.4-2.7-3.3-3.6 c-2-0.2-3.2,1-3.2,2.8c0,2.4,1.5,5.2,9,5.2c4.1,0,8.7-1.1,11-3.5C26.3,38,30.9,39,35,39c7.4,0,9-2.7,9-5.2C44,32,42.8,30.8,40.6,31 z"/><path fill="#4e342e" d="M42.7,31.4c-0.1,0-0.2-0.1-0.3-0.1c-0.1,0-0.1-0.1-0.2-0.1c-0.2-0.1-0.4-0.1-0.6-0.1 c-0.2,0-0.4,0-0.6,0c-0.1,0-0.3,0-0.4,0c1.3,0.4,1.9,1.4,1.7,2.3c0.2,1-0.1,2.2-1.7,3.2c-1.1,0.5-2.8,0.9-5.5,0.9 c-3.3,0-8-1-10-3.3c-0.6-0.7-1-1.5-1-2.5c0,1-0.4,1.8-1,2.5c-2,2.3-6.7,3.3-10,3.3c-2.7,0-4.4-0.4-5.5-0.9c-1.7-1-2-2.2-1.7-3.2 c-0.2-0.9,0.4-2,1.7-2.3c-0.1,0-0.3,0-0.4,0c-0.2,0-0.4,0-0.6,0c-0.2,0-0.4,0.1-0.6,0.1c-0.1,0-0.2,0.1-0.3,0.1 c-0.1,0-0.1,0.1-0.2,0.1c-1,0.4-1.5,1.3-1.5,2.4c0,2.4,1.5,5.2,9,5.2c3.1,0,6.4-0.6,8.9-1.9c0.8-0.4,1.5-1,2.1-1.6 C26.3,38,30.9,39,35,39c1.9,0,3.4-0.2,4.5-0.5c3.3-0.8,4.3-2.6,4.4-4.2c0-0.2,0-0.3,0-0.5C44,32.7,43.5,31.8,42.7,31.4z"/><path fill="#0097a7" d="M45,11c-0.2-0.2-2.8-2-10-2h-1c-0.5,0-1,0-1.5,0.1c-3.3,0.2-5.1,0.7-6.9,1.6c-0.1,0-0.7,0.3-1.5,0.3 c0,0,0,0-0.1,0c-0.8,0-1.4-0.3-1.5-0.3l-0.2-0.1c-1.7-0.8-2.8-1.4-6.9-1.6c-0.2,0-0.4,0-0.6,0c-0.2,0-0.5,0-0.7,0h-1 c-7.2,0-9.8,1.8-10,2c-0.6,0-1,0.4-1,1v1c0,0.6,0.4,1,1,1c0,0,2,0,2,1c0,0.1,0,0.1,0,0.2c0,0.3,0,0.6,0,0.8c0,4.4,2.8,7,7.6,7h0.9 c5,0,8.5-2.9,8.5-7c0-0.5,0-1-0.1-1.5l0.5-0.2c0.1,0,0.7-0.3,1.6-0.3h0.1c0.8,0,1.5,0.3,1.5,0.3l0.5,0.2c0,0.5-0.1,1-0.1,1.5 c0,4.4,2.8,7,7.6,7h0.9c5,0,8.5-2.9,8.5-7c0-0.3,0-0.6,0-0.8c0,0,0-0.1,0-0.2c0-1,2-1,2-1c0.6,0,1-0.4,1-1v-1 C46,11.4,45.6,11,45,11z M13.5,21h-0.9C8,21,7,18.3,7,16c0-2.8,0-5,6-5c0.8,0,1.5,0,2.1,0c4.9,0.3,4.9,2.4,4.9,5 C20,18.9,17.3,21,13.5,21z M34.5,21h-0.9C29,21,28,18.3,28,16c0-2.5,0-4.5,4.4-4.9C33.1,11,34,11,35,11c6,0,6,2.2,6,5 C41,18.9,38.3,21,34.5,21z"/><path fill="#fff" d="M31,17C31,17,31,17,31,17c-0.6,0-1-0.4-1-1c0-1,0.8-3,4-3c0.6,0,1,0.4,1,1s-0.4,1-1,1 c-1.8,0-2,0.9-2,1C32,16.6,31.5,17,31,17z M10,17C10,17,10,17,10,17c-0.6,0-1-0.4-1-1c0-1,0.8-3,4-3c0.6,0,1,0.4,1,1s-0.4,1-1,1 c-1.8,0-2,0.9-2,1C11,16.6,10.5,17,10,17z"/></svg>